<?xml version="1.0" encoding="UTF-8"?><svg xmlns="http://www.w3.org/2000/svg" xmlns:xlink="http://www.w3.org/1999/xlink" height="308.6" preserveAspectRatio="xMidYMid meet" version="1.0" viewBox="65.5 58.7 295.1 308.6" width="295.1" zoomAndPan="magnify"><g><g id="change1_1"><path d="M 222.769531 88.695312 C 237.449219 72.617188 262.386719 71.488281 278.464844 86.171875 C 294.539062 100.851562 295.671875 125.789062 280.988281 141.863281 C 266.304688 157.941406 241.371094 159.070312 225.292969 144.390625 C 209.21875 129.707031 208.085938 104.773438 222.769531 88.695312" fill="#fff"/></g><path d="M 2227.695312 3365.046875 C 2374.492188 3525.828125 2623.867188 3537.117188 2784.648438 3390.28125 C 2945.390625 3243.484375 2956.71875 2994.109375 2809.882812 2833.367188 C 2663.046875 2672.585938 2413.710938 2661.296875 2252.929688 2808.09375 C 2092.1875 2954.929688 2080.859375 3204.265625 2227.695312 3365.046875 Z M 2227.695312 3365.046875" fill="none" stroke="#262a30" stroke-linecap="round" stroke-linejoin="round" stroke-miterlimit="10" stroke-width="40" transform="matrix(.1 0 0 -.1 0 425.2)"/><path d="M 2536.757812 2702.46875 L 2543.515625 2553.679688" fill="none" stroke="#262a30" stroke-linecap="round" stroke-linejoin="round" stroke-miterlimit="10" stroke-width="40" transform="matrix(.1 0 0 -.1 0 425.2)"/><path d="M 2494.0625 3644.695312 L 2500.820312 3495.242188" fill="none" stroke="#262a30" stroke-linecap="round" stroke-linejoin="round" stroke-miterlimit="10" stroke-width="40" transform="matrix(.1 0 0 -.1 0 425.2)"/><path d="M 2809.882812 2833.367188 L 2921.992188 2730.945312" fill="none" stroke="#262a30" stroke-linecap="round" stroke-linejoin="round" stroke-miterlimit="10" stroke-width="40" transform="matrix(.1 0 0 -.1 0 425.2)"/><path d="M 2115.546875 3467.429688 L 2227.695312 3365.046875" fill="none" stroke="#262a30" stroke-linecap="round" stroke-linejoin="round" stroke-miterlimit="10" stroke-width="40" transform="matrix(.1 0 0 -.1 0 425.2)"/><path d="M 2912.070312 3117.039062 L 3064.296875 3123.914062" fill="none" stroke="#262a30" stroke-linecap="round" stroke-linejoin="round" stroke-miterlimit="10" stroke-width="40" transform="matrix(.1 0 0 -.1 0 425.2)"/><path d="M 1973.28125 3074.460938 L 2123.4375 3081.257812" fill="none" stroke="#262a30" stroke-linecap="round" stroke-linejoin="round" stroke-miterlimit="10" stroke-width="40" transform="matrix(.1 0 0 -.1 0 425.2)"/><path d="M 2784.648438 3390.28125 L 2887.03125 3502.429688" fill="none" stroke="#262a30" stroke-linecap="round" stroke-linejoin="round" stroke-miterlimit="10" stroke-width="40" transform="matrix(.1 0 0 -.1 0 425.2)"/><path d="M 2150.546875 2695.984375 L 2252.929688 2808.09375" fill="none" stroke="#262a30" stroke-linecap="round" stroke-linejoin="round" stroke-miterlimit="10" stroke-width="40" transform="matrix(.1 0 0 -.1 0 425.2)"/><g id="change2_1"><path d="M 248.128906 83.269531 C 250.796875 84.386719 252.355469 86.320312 254.34375 88.335938 C 257.148438 91.183594 260.117188 92.140625 263.917969 92.972656 C 268.449219 93.964844 272.074219 95.996094 273.699219 100.570312 C 274.582031 103.050781 274.671875 105.714844 275.285156 108.257812 C 276.011719 111.253906 277.792969 113.535156 279.253906 116.179688 C 281.667969 120.546875 281.683594 124.726562 278.53125 128.691406 C 277.527344 129.953125 276.308594 130.96875 275.527344 132.421875 C 274.503906 134.320312 274.316406 136.550781 273.667969 138.578125 C 272.945312 140.839844 271.777344 142.792969 270.210938 144.5625 C 267.542969 147.574219 262.855469 149.859375 260.550781 153.292969 C 268.046875 151.554688 275.113281 147.617188 280.695312 141.503906 C 295.378906 125.425781 294.25 100.492188 278.171875 85.808594 C 266.136719 74.820312 249.140625 72.691406 235.195312 79.0625 C 238.203125 81.585938 245.992188 82.378906 248.128906 83.269531" fill="#faf59b"/></g><path d="M 2227.695312 3365.046875 C 2374.492188 3525.828125 2623.867188 3537.117188 2784.648438 3390.28125 C 2945.390625 3243.484375 2956.71875 2994.109375 2809.882812 2833.367188 C 2663.046875 2672.585938 2413.710938 2661.296875 2252.929688 2808.09375 C 2092.1875 2954.929688 2080.859375 3204.265625 2227.695312 3365.046875 Z M 2227.695312 3365.046875" fill="none" stroke="#262a30" stroke-linecap="round" stroke-linejoin="round" stroke-miterlimit="10" stroke-width="40" transform="matrix(.1 0 0 -.1 0 425.2)"/><path d="M 2271.914062 3309.226562 C 2362.929688 3389.421875 2496.40625 3418.25 2612.382812 3382.742188" fill="none" stroke="#262a30" stroke-linecap="round" stroke-linejoin="round" stroke-miterlimit="10" stroke-width="30" transform="matrix(.1 0 0 -.1 0 425.2)"/><path d="M 2662.265625 3362.3125 C 2671.25 3357.507812 2679.882812 3352.039062 2688.085938 3346.023438" fill="none" stroke="#262a30" stroke-linecap="round" stroke-linejoin="round" stroke-miterlimit="10" stroke-width="30" transform="matrix(.1 0 0 -.1 0 425.2)"/><g id="change1_2"><path d="M 329.039062 188.5625 C 328.820312 173.71875 316.726562 161.75 301.832031 161.75 C 296.621094 161.75 291.753906 163.21875 287.617188 165.753906 C 287.617188 165.601562 287.628906 165.453125 287.628906 165.300781 C 287.628906 142.425781 269.085938 123.878906 246.207031 123.878906 C 239.59375 123.878906 233.347656 125.4375 227.800781 128.191406 C 219.074219 110.226562 200.652344 97.84375 179.339844 97.84375 C 149.984375 97.84375 126.132812 121.335938 125.519531 150.542969 C 109.992188 153.566406 98.269531 167.234375 98.269531 183.644531 C 98.269531 186.757812 98.699219 189.769531 99.492188 192.632812 C 96.46875 191.058594 93.039062 190.15625 89.394531 190.15625 C 77.300781 190.15625 67.5 199.957031 67.5 212.050781 C 67.5 224.140625 77.300781 233.945312 89.394531 233.945312 C 91.6875 233.945312 93.898438 233.585938 95.976562 232.933594 C 96.980469 247.382812 109.011719 258.796875 123.714844 258.796875 C 131.964844 258.796875 139.371094 255.203125 144.464844 249.496094 C 149.699219 273.753906 171.269531 291.933594 197.089844 291.933594 C 219.285156 291.933594 238.339844 278.503906 246.582031 259.328125 C 253.414062 264.910156 262.140625 268.265625 271.652344 268.265625 C 292.460938 268.265625 309.511719 252.234375 311.15625 231.847656 C 314.671875 233.917969 318.757812 235.128906 323.132812 235.128906 C 336.207031 235.128906 346.804688 224.53125 346.804688 211.457031 C 346.804688 200.429688 339.25 191.1875 329.039062 188.5625" fill="#fff"/></g><path d="M 3290.390625 2366.375 C 3288.203125 2514.8125 3167.265625 2634.5 3018.320312 2634.5 C 2966.210938 2634.5 2917.539062 2619.8125 2876.171875 2594.460938 C 2876.171875 2595.984375 2876.289062 2597.46875 2876.289062 2598.992188 C 2876.289062 2827.742188 2690.859375 3013.210938 2462.070312 3013.210938 C 2395.9375 3013.210938 2333.476562 2997.625 2278.007812 2970.085938 C 2190.742188 3149.734375 2006.523438 3273.5625 1793.398438 3273.5625 C 1499.84375 3273.5625 1261.328125 3038.640625 1255.195312 2746.570312 C 1099.921875 2716.335938 982.695312 2579.65625 982.695312 2415.554688 C 982.695312 2384.421875 986.992188 2354.304688 994.921875 2325.671875 C 964.6875 2341.414062 930.390625 2350.4375 893.945312 2350.4375 C 773.007812 2350.4375 675 2252.429688 675 2131.492188 C 675 2010.59375 773.007812 1912.546875 893.945312 1912.546875 C 916.875 1912.546875 938.984375 1916.140625 959.765625 1922.664062 C 969.804688 1778.171875 1090.117188 1664.03125 1237.148438 1664.03125 C 1319.648438 1664.03125 1393.710938 1699.96875 1444.648438 1757.039062 C 1496.992188 1514.460938 1712.695312 1332.664062 1970.898438 1332.664062 C 2192.851562 1332.664062 2383.398438 1466.960938 2465.820312 1658.71875 C 2534.140625 1602.898438 2621.40625 1569.34375 2716.523438 1569.34375 C 2924.609375 1569.34375 3095.117188 1729.65625 3111.5625 1933.523438 C 3146.71875 1912.820312 3187.578125 1900.710938 3231.328125 1900.710938 C 3362.070312 1900.710938 3468.046875 2006.6875 3468.046875 2137.429688 C 3468.046875 2247.703125 3392.5 2340.125 3290.390625 2366.375 Z M 3290.390625 2366.375" fill="none" stroke="#262a30" stroke-linecap="round" stroke-linejoin="round" stroke-miterlimit="10" stroke-width="40" transform="matrix(.1 0 0 -.1 0 425.2)"/><g id="change3_1"><path d="M 314.886719 234.074219 C 325.742188 234.132812 339.714844 233.578125 344.816406 222.125 C 346.945312 217.339844 347.824219 209.960938 346.027344 204.949219 C 345.472656 203.402344 344.722656 201.945312 343.894531 200.519531 C 342.980469 208.273438 339.058594 216.59375 332.398438 220.679688 C 324.710938 225.394531 316.667969 221.117188 311.433594 214.945312 C 310.035156 213.300781 308.648438 211.1875 306.632812 210.242188 C 303.5625 208.808594 299.867188 210.582031 297.265625 212.285156 C 291.261719 216.21875 289.898438 222.972656 288.785156 229.558594 C 287.464844 237.371094 285.691406 247.140625 277.765625 250.992188 C 270.914062 254.320312 263.3125 250.769531 258.136719 246.054688 C 252.527344 240.945312 246.320312 235.742188 238.148438 237.972656 C 230.699219 240.003906 228.449219 245.929688 227.21875 252.777344 C 225.789062 260.726562 223.128906 267.605469 216.183594 272.292969 C 203.589844 280.792969 185.234375 277.09375 174.277344 267.574219 C 168.183594 262.277344 165.289062 255.4375 164.050781 247.578125 C 163.109375 241.609375 162.828125 234.9375 158.640625 230.15625 C 154.488281 225.414062 147.398438 222.789062 141.265625 224.59375 C 132.398438 227.203125 130.527344 238.351562 122.292969 241.140625 C 115.074219 243.582031 112.992188 233.691406 113.398438 228.609375 C 113.652344 225.445312 114.398438 221.941406 112.617188 219.046875 C 109.988281 214.777344 104.921875 214.1875 100.734375 216.058594 C 96.957031 217.75 93.644531 220.644531 89.410156 221.171875 C 82.695312 222.003906 78.109375 216.433594 79.3125 209.933594 C 80.960938 201.058594 89.570312 198.289062 97.253906 201.300781 C 101.945312 203.140625 106.945312 207.570312 112.175781 207.332031 C 119.777344 206.988281 117.402344 197.28125 115.132812 192.980469 C 111.070312 185.289062 105.632812 179.109375 112.464844 171.125 C 116.089844 166.894531 120.199219 164.015625 119.785156 157.765625 C 119.691406 156.335938 119.449219 154.285156 118.988281 152.179688 C 113.421875 155.335938 108.511719 160.207031 105.058594 165.371094 C 100.347656 172.421875 99.199219 179.421875 98.953125 187.730469 C 98.933594 188.417969 98.71875 188.976562 98.386719 189.417969 C 98.378906 189.5 98.367188 189.582031 98.355469 189.664062 C 98.085938 191.292969 96.851562 191.90625 95.601562 191.777344 C 94.042969 192.300781 92.285156 191.90625 91.3125 190.015625 C 78.746094 190.246094 66.457031 202.222656 67.539062 215.226562 C 68.445312 226.109375 81.019531 235.847656 91.839844 234.199219 C 93.394531 232.960938 95.976562 233.109375 96.378906 235.5625 C 97.992188 245.46875 105.726562 254.605469 115.214844 257.886719 C 119.898438 259.507812 125.527344 260.050781 130.121094 257.847656 C 134.125 255.929688 137.300781 252.902344 141.699219 251.796875 C 142.738281 251.535156 143.597656 251.808594 144.226562 252.339844 C 145.308594 252.691406 146.246094 253.566406 146.414062 254.964844 C 147.699219 265.597656 157.96875 276.21875 166.289062 282.066406 C 171.101562 285.445312 176.484375 288.300781 182.203125 289.75 C 187.347656 291.054688 192.695312 291.402344 197.964844 292.066406 C 198.039062 292.070312 198.105469 292.058594 198.183594 292.066406 C 207.363281 292.933594 218.601562 288.804688 226.328125 284.015625 C 234.234375 279.117188 240.972656 272.214844 245.097656 263.84375 C 245.460938 261.746094 248.144531 260.113281 250.03125 262.113281 C 258.136719 270.703125 275.171875 269.640625 285.417969 266.308594 C 291.746094 264.253906 297.621094 260.65625 301.988281 255.597656 C 307.023438 249.761719 307.722656 242.554688 310.207031 235.5625 C 310.980469 233.382812 313.414062 233.121094 314.886719 234.074219" fill="#92dbec"/></g><path d="M 2180.429688 2809.929688 C 2200.15625 2877.273438 2241.40625 2938.132812 2296.640625 2981.414062" fill="none" stroke="#262a30" stroke-linecap="round" stroke-linejoin="round" stroke-miterlimit="10" stroke-width="40" transform="matrix(.1 0 0 -.1 0 425.2)"/><path d="M 2821.914062 2440.359375 C 2852.695312 2492 2866.015625 2552.078125 2875.234375 2611.492188" fill="none" stroke="#262a30" stroke-linecap="round" stroke-linejoin="round" stroke-miterlimit="10" stroke-width="40" transform="matrix(.1 0 0 -.1 0 425.2)"/><path d="M 3327.265625 2351.882812 C 3279.453125 2364.265625 3225.976562 2351.882812 3188.398438 2319.8125" fill="none" stroke="#262a30" stroke-linecap="round" stroke-linejoin="round" stroke-miterlimit="10" stroke-width="40" transform="matrix(.1 0 0 -.1 0 425.2)"/><path d="M 3137.109375 1916.53125 C 3093.320312 1943.289062 3061.445312 1988.835938 3051.328125 2039.148438" fill="none" stroke="#262a30" stroke-linecap="round" stroke-linejoin="round" stroke-miterlimit="10" stroke-width="40" transform="matrix(.1 0 0 -.1 0 425.2)"/><path d="M 2427.695312 1745.085938 C 2438.59375 1695.085938 2472.1875 1653.875 2517.1875 1623.640625" fill="none" stroke="#262a30" stroke-linecap="round" stroke-linejoin="round" stroke-miterlimit="10" stroke-width="40" transform="matrix(.1 0 0 -.1 0 425.2)"/><path d="M 1257.382812 2787.234375 C 1251.914062 2733.875 1271.054688 2678.523438 1308.320312 2639.96875" fill="none" stroke="#262a30" stroke-linecap="round" stroke-linejoin="round" stroke-miterlimit="10" stroke-width="40" transform="matrix(.1 0 0 -.1 0 425.2)"/><path d="M 955.3125 2344.851562 C 999.179688 2320.945312 1036.640625 2285.398438 1062.890625 2242.859375" fill="none" stroke="#262a30" stroke-linecap="round" stroke-linejoin="round" stroke-miterlimit="10" stroke-width="40" transform="matrix(.1 0 0 -.1 0 425.2)"/><path d="M 953.90625 1920.632812 C 979.414062 1941.296875 1000.898438 1966.921875 1016.71875 1995.632812" fill="none" stroke="#262a30" stroke-linecap="round" stroke-linejoin="round" stroke-miterlimit="10" stroke-width="40" transform="matrix(.1 0 0 -.1 0 425.2)"/><path d="M 1458.125 1708.640625 C 1440.9375 1763.523438 1438.945312 1823.054688 1452.421875 1878.953125" fill="none" stroke="#262a30" stroke-linecap="round" stroke-linejoin="round" stroke-miterlimit="10" stroke-width="40" transform="matrix(.1 0 0 -.1 0 425.2)"/><path d="M 1368.59375 2802.625 C 1419.414062 2970.320312 1561.445312 3107.195312 1730.898438 3151.804688" fill="none" stroke="#262a30" stroke-linecap="round" stroke-linejoin="round" stroke-miterlimit="10" stroke-width="30" transform="matrix(.1 0 0 -.1 0 425.2)"/><path d="M 1830.3125 3161.414062 C 1849.765625 3162.195312 1869.414062 3158.523438 1887.265625 3150.789062" fill="none" stroke="#262a30" stroke-linecap="round" stroke-linejoin="round" stroke-miterlimit="10" stroke-width="30" transform="matrix(.1 0 0 -.1 0 425.2)"/><path d="M 2582.578125 1700.398438 C 2630.78125 1669.34375 2689.804688 1655.398438 2746.796875 1661.609375 C 2803.828125 1667.78125 2858.476562 1694.070312 2898.90625 1734.734375" fill="none" stroke="#262a30" stroke-linecap="round" stroke-linejoin="round" stroke-miterlimit="10" stroke-width="30" transform="matrix(.1 0 0 -.1 0 425.2)"/><path d="M 2959.0625 1796.960938 C 2969.570312 1808.679688 2975.898438 1824.070312 2976.640625 1839.773438" fill="none" stroke="#262a30" stroke-linecap="round" stroke-linejoin="round" stroke-miterlimit="10" stroke-width="30" transform="matrix(.1 0 0 -.1 0 425.2)"/><path d="M 3290.390625 2366.375 C 3288.203125 2514.8125 3167.265625 2634.5 3018.320312 2634.5 C 2966.210938 2634.5 2917.539062 2619.8125 2876.171875 2594.460938 C 2876.171875 2595.984375 2876.289062 2597.46875 2876.289062 2598.992188 C 2876.289062 2827.742188 2690.859375 3013.210938 2462.070312 3013.210938 C 2395.9375 3013.210938 2333.476562 2997.625 2278.007812 2970.085938 C 2190.742188 3149.734375 2006.523438 3273.5625 1793.398438 3273.5625 C 1499.84375 3273.5625 1261.328125 3038.640625 1255.195312 2746.570312 C 1099.921875 2716.335938 982.695312 2579.65625 982.695312 2415.554688 C 982.695312 2384.421875 986.992188 2354.304688 994.921875 2325.671875 C 964.6875 2341.414062 930.390625 2350.4375 893.945312 2350.4375 C 773.007812 2350.4375 675 2252.429688 675 2131.492188 C 675 2010.59375 773.007812 1912.546875 893.945312 1912.546875 C 916.875 1912.546875 938.984375 1916.140625 959.765625 1922.664062 C 969.804688 1778.171875 1090.117188 1664.03125 1237.148438 1664.03125 C 1319.648438 1664.03125 1393.710938 1699.96875 1444.648438 1757.039062 C 1496.992188 1514.460938 1712.695312 1332.664062 1970.898438 1332.664062 C 2192.851562 1332.664062 2383.398438 1466.960938 2465.820312 1658.71875 C 2534.140625 1602.898438 2621.40625 1569.34375 2716.523438 1569.34375 C 2924.609375 1569.34375 3095.117188 1729.65625 3111.5625 1933.523438 C 3146.71875 1912.820312 3187.578125 1900.710938 3231.328125 1900.710938 C 3362.070312 1900.710938 3468.046875 2006.6875 3468.046875 2137.429688 C 3468.046875 2247.703125 3392.5 2340.125 3290.390625 2366.375 Z M 3290.390625 2366.375" fill="none" stroke="#262a30" stroke-linecap="round" stroke-linejoin="round" stroke-miterlimit="10" stroke-width="40" transform="matrix(.1 0 0 -.1 0 425.2)"/><g id="change3_2"><path d="M 323.921875 274.796875 C 325.246094 273.472656 325.449219 271.53125 324.375 270.457031 L 315.371094 261.449219 C 314.296875 260.378906 312.355469 260.582031 311.027344 261.90625 C 309.703125 263.230469 309.5 265.175781 310.574219 266.246094 L 319.578125 275.253906 C 320.652344 276.328125 322.59375 276.121094 323.921875 274.796875" fill="#92dbec"/></g><path d="M 3239.21875 1504.03125 C 3252.460938 1517.273438 3254.492188 1536.6875 3243.75 1547.429688 L 3153.710938 1637.507812 C 3142.96875 1648.210938 3123.554688 1646.179688 3110.273438 1632.9375 C 3097.03125 1619.695312 3095 1600.242188 3105.742188 1589.539062 L 3195.78125 1499.460938 C 3206.523438 1488.71875 3225.9375 1490.789062 3239.21875 1504.03125 Z M 3239.21875 1504.03125" fill="none" stroke="#262a30" stroke-linecap="round" stroke-linejoin="round" stroke-miterlimit="10" stroke-width="40" transform="matrix(.1 0 0 -.1 0 425.2)"/><g id="change3_3"><path d="M 268.054688 330.664062 C 269.378906 329.339844 269.585938 327.394531 268.511719 326.320312 L 259.503906 317.316406 C 258.433594 316.242188 256.488281 316.449219 255.164062 317.773438 C 253.839844 319.097656 253.636719 321.039062 254.707031 322.113281 L 263.714844 331.121094 C 264.785156 332.191406 266.730469 331.988281 268.054688 330.664062" fill="#92dbec"/></g><path d="M 2680.546875 945.359375 C 2693.789062 958.601562 2695.859375 978.054688 2685.117188 988.796875 L 2595.039062 1078.835938 C 2584.335938 1089.578125 2564.882812 1087.507812 2551.640625 1074.265625 C 2538.398438 1061.023438 2536.367188 1041.609375 2547.070312 1030.867188 L 2637.148438 940.789062 C 2647.851562 930.085938 2667.304688 932.117188 2680.546875 945.359375 Z M 2680.546875 945.359375" fill="none" stroke="#262a30" stroke-linecap="round" stroke-linejoin="round" stroke-miterlimit="10" stroke-width="40" transform="matrix(.1 0 0 -.1 0 425.2)"/><g id="change3_4"><path d="M 312.261719 319.003906 C 313.585938 317.679688 313.789062 315.734375 312.71875 314.664062 L 303.710938 305.65625 C 302.640625 304.585938 300.695312 304.789062 299.371094 306.113281 C 298.046875 307.4375 297.839844 309.382812 298.914062 310.453125 L 307.921875 319.460938 C 308.992188 320.535156 310.9375 320.328125 312.261719 319.003906" fill="#92dbec"/></g><path d="M 3122.617188 1061.960938 C 3135.859375 1075.203125 3137.890625 1094.65625 3127.1875 1105.359375 L 3037.109375 1195.4375 C 3026.40625 1206.140625 3006.953125 1204.109375 2993.710938 1190.867188 C 2980.46875 1177.625 2978.398438 1158.171875 2989.140625 1147.46875 L 3079.21875 1057.390625 C 3089.921875 1046.648438 3109.375 1048.71875 3122.617188 1061.960938 Z M 3122.617188 1061.960938" fill="none" stroke="#262a30" stroke-linecap="round" stroke-linejoin="round" stroke-miterlimit="10" stroke-width="40" transform="matrix(.1 0 0 -.1 0 425.2)"/><g id="change3_5"><path d="M 284.136719 290.878906 C 285.460938 289.554688 285.664062 287.613281 284.59375 286.539062 L 275.589844 277.53125 C 274.515625 276.460938 272.570312 276.664062 271.246094 277.988281 C 269.921875 279.3125 269.71875 281.257812 270.789062 282.328125 L 279.796875 291.335938 C 280.867188 292.410156 282.8125 292.203125 284.136719 290.878906" fill="#92dbec"/></g><path d="M 2841.367188 1343.210938 C 2854.609375 1356.453125 2856.640625 1375.867188 2845.9375 1386.609375 L 2755.898438 1476.6875 C 2745.15625 1487.390625 2725.703125 1485.359375 2712.460938 1472.117188 C 2699.21875 1458.875 2697.1875 1439.421875 2707.890625 1428.71875 L 2797.96875 1338.640625 C 2808.671875 1327.898438 2828.125 1329.96875 2841.367188 1343.210938 Z M 2841.367188 1343.210938" fill="none" stroke="#262a30" stroke-linecap="round" stroke-linejoin="round" stroke-miterlimit="10" stroke-width="40" transform="matrix(.1 0 0 -.1 0 425.2)"/><g id="change3_6"><path d="M 356.582031 274.683594 C 357.90625 273.359375 358.113281 271.414062 357.039062 270.34375 L 348.03125 261.335938 C 346.960938 260.261719 345.015625 260.46875 343.691406 261.792969 C 342.367188 263.117188 342.164062 265.0625 343.234375 266.132812 L 352.242188 275.140625 C 353.3125 276.214844 355.257812 276.007812 356.582031 274.683594" fill="#92dbec"/></g><path d="M 3565.820312 1505.164062 C 3579.0625 1518.40625 3581.132812 1537.859375 3570.390625 1548.5625 L 3480.3125 1638.640625 C 3469.609375 1649.382812 3450.15625 1647.3125 3436.914062 1634.070312 C 3423.671875 1620.828125 3421.640625 1601.375 3432.34375 1590.671875 L 3522.421875 1500.59375 C 3533.125 1489.851562 3552.578125 1491.921875 3565.820312 1505.164062 Z M 3565.820312 1505.164062" fill="none" stroke="#262a30" stroke-linecap="round" stroke-linejoin="round" stroke-miterlimit="10" stroke-width="40" transform="matrix(.1 0 0 -.1 0 425.2)"/><g id="change3_7"><path d="M 267.941406 363.328125 C 269.265625 362 269.46875 360.058594 268.398438 358.984375 L 259.390625 349.980469 C 258.316406 348.90625 256.375 349.109375 255.050781 350.433594 C 253.722656 351.761719 253.519531 353.703125 254.59375 354.777344 L 263.597656 363.78125 C 264.671875 364.855469 266.617188 364.652344 267.941406 363.328125" fill="#92dbec"/></g><path d="M 2679.414062 618.71875 C 2692.65625 632 2694.6875 651.414062 2683.984375 662.15625 L 2593.90625 752.195312 C 2583.164062 762.9375 2563.75 760.90625 2550.507812 747.664062 C 2537.226562 734.382812 2535.195312 714.96875 2545.9375 704.226562 L 2635.976562 614.1875 C 2646.71875 603.445312 2666.171875 605.476562 2679.414062 618.71875 Z M 2679.414062 618.71875" fill="none" stroke="#262a30" stroke-linecap="round" stroke-linejoin="round" stroke-miterlimit="10" stroke-width="40" transform="matrix(.1 0 0 -.1 0 425.2)"/><g id="change3_8"><path d="M 228.390625 323.777344 C 229.714844 322.453125 229.917969 320.507812 228.847656 319.433594 L 219.839844 310.429688 C 218.769531 309.355469 216.824219 309.558594 215.5 310.882812 C 214.175781 312.210938 213.96875 314.152344 215.042969 315.226562 L 224.046875 324.230469 C 225.121094 325.304688 227.066406 325.101562 228.390625 323.777344" fill="#92dbec"/></g><path d="M 2283.90625 1014.226562 C 2297.148438 1027.46875 2299.179688 1046.921875 2288.476562 1057.664062 L 2198.398438 1147.703125 C 2187.695312 1158.445312 2168.242188 1156.414062 2155 1143.171875 C 2141.757812 1129.890625 2139.6875 1110.476562 2150.429688 1099.734375 L 2240.46875 1009.695312 C 2251.210938 998.953125 2270.664062 1000.984375 2283.90625 1014.226562 Z M 2283.90625 1014.226562" fill="none" stroke="#262a30" stroke-linecap="round" stroke-linejoin="round" stroke-miterlimit="10" stroke-width="40" transform="matrix(.1 0 0 -.1 0 425.2)"/><g id="change3_9"><path d="M 245.96875 299.167969 C 247.292969 297.84375 247.496094 295.898438 246.425781 294.824219 L 237.417969 285.820312 C 236.34375 284.746094 234.402344 284.949219 233.078125 286.277344 C 231.753906 287.601562 231.546875 289.542969 232.621094 290.617188 L 241.625 299.621094 C 242.699219 300.695312 244.644531 300.492188 245.96875 299.167969" fill="#92dbec"/></g><path d="M 2459.6875 1260.320312 C 2472.929688 1273.5625 2474.960938 1293.015625 2464.257812 1303.757812 L 2374.179688 1393.796875 C 2363.4375 1404.539062 2344.023438 1402.507812 2330.78125 1389.226562 C 2317.539062 1375.984375 2315.46875 1356.570312 2326.210938 1345.828125 L 2416.25 1255.789062 C 2426.992188 1245.046875 2446.445312 1247.078125 2459.6875 1260.320312 Z M 2459.6875 1260.320312" fill="none" stroke="#262a30" stroke-linecap="round" stroke-linejoin="round" stroke-miterlimit="10" stroke-width="40" transform="matrix(.1 0 0 -.1 0 425.2)"/><g id="change3_10"><path d="M 346.035156 318.007812 C 347.363281 316.683594 347.566406 314.738281 346.492188 313.664062 L 337.488281 304.660156 C 336.414062 303.585938 334.472656 303.789062 333.144531 305.117188 C 331.820312 306.441406 331.617188 308.386719 332.691406 309.457031 L 341.695312 318.464844 C 342.769531 319.535156 344.714844 319.332031 346.035156 318.007812" fill="#92dbec"/></g><path d="M 3460.351562 1071.921875 C 3473.632812 1085.164062 3475.664062 1104.617188 3464.921875 1115.359375 L 3374.882812 1205.398438 C 3364.140625 1216.140625 3344.726562 1214.109375 3331.445312 1200.828125 C 3318.203125 1187.585938 3316.171875 1168.132812 3326.914062 1157.429688 L 3416.953125 1067.351562 C 3427.695312 1056.648438 3447.148438 1058.679688 3460.351562 1071.921875 Z M 3460.351562 1071.921875" fill="none" stroke="#262a30" stroke-linecap="round" stroke-linejoin="round" stroke-miterlimit="10" stroke-width="40" transform="matrix(.1 0 0 -.1 0 425.2)"/><g id="change3_11"><path d="M 311.265625 352.78125 C 312.589844 351.457031 312.792969 349.511719 311.71875 348.4375 L 302.714844 339.433594 C 301.640625 338.359375 299.695312 338.5625 298.371094 339.890625 C 297.046875 341.214844 296.84375 343.15625 297.917969 344.230469 L 306.921875 353.238281 C 307.996094 354.308594 309.941406 354.105469 311.265625 352.78125" fill="#92dbec"/></g><path d="M 3112.65625 724.1875 C 3125.898438 737.429688 3127.929688 756.882812 3117.1875 767.625 L 3027.148438 857.664062 C 3016.40625 868.40625 2996.953125 866.375 2983.710938 853.09375 C 2970.46875 839.851562 2968.4375 820.4375 2979.179688 809.695312 L 3069.21875 719.617188 C 3079.960938 708.914062 3099.414062 710.945312 3112.65625 724.1875 Z M 3112.65625 724.1875" fill="none" stroke="#262a30" stroke-linecap="round" stroke-linejoin="round" stroke-miterlimit="10" stroke-width="40" transform="matrix(.1 0 0 -.1 0 425.2)"/><path d="M 2019.296875 1023.679688 C 2006.40625 994.109375 1970.546875 980.320312 1938.359375 982.585938 C 1906.171875 984.890625 1876.445312 999.734375 1847.109375 1013.171875 C 1817.773438 1026.648438 1786.445312 1039.1875 1754.257812 1036.492188 C 1707.96875 1032.625 1669.609375 998.132812 1624.21875 988.132812 C 1529.726562 967.234375 1455.742188 1058.445312 1362.96875 1030.945312 C 1325.898438 1019.96875 1274.21875 989.070312 1237.1875 978.015625 C 1188.554688 963.601562 1131.679688 984.1875 1103.59375 1026.453125" fill="none" stroke="#262a30" stroke-linecap="round" stroke-linejoin="round" stroke-miterlimit="10" stroke-width="40" transform="matrix(.1 0 0 -.1 0 425.2)"/><path d="M 1393.085938 1456.84375 C 1385.742188 1440.007812 1365.351562 1432.15625 1347.03125 1433.484375 C 1328.710938 1434.773438 1311.796875 1443.25 1295.117188 1450.867188 C 1278.398438 1458.523438 1260.585938 1465.710938 1242.265625 1464.148438 C 1215.9375 1461.960938 1194.101562 1442.3125 1168.28125 1436.648438 C 1114.492188 1424.734375 1072.421875 1476.648438 1019.609375 1460.984375 C 998.515625 1454.734375 969.101562 1437.15625 948.046875 1430.867188 C 920.351562 1422.664062 888.007812 1434.382812 872.03125 1458.445312" fill="none" stroke="#262a30" stroke-linecap="round" stroke-linejoin="round" stroke-miterlimit="10" stroke-width="40" transform="matrix(.1 0 0 -.1 0 425.2)"/><path d="M 1666.640625 1244.5 C 1653.75 1214.929688 1617.890625 1201.101562 1585.703125 1203.40625 C 1553.515625 1205.710938 1523.789062 1220.554688 1494.453125 1233.992188 C 1465.117188 1247.46875 1433.789062 1260.007812 1401.601562 1257.3125 C 1355.273438 1253.445312 1316.953125 1218.953125 1271.5625 1208.953125 C 1177.070312 1188.09375 1103.085938 1279.304688 1010.3125 1251.765625 C 973.242188 1240.789062 921.5625 1209.851562 884.53125 1198.835938 C 835.898438 1184.421875 779.023438 1205.007812 750.9375 1247.273438" fill="none" stroke="#262a30" stroke-linecap="round" stroke-linejoin="round" stroke-miterlimit="10" stroke-width="40" transform="matrix(.1 0 0 -.1 0 425.2)"/><path d="M 2339.023438 818.25 C 2326.09375 788.640625 2290.234375 774.851562 2258.046875 777.15625 C 2225.859375 779.460938 2196.132812 794.304688 2166.796875 807.742188 C 2137.460938 821.179688 2106.132812 833.757812 2073.984375 831.0625 C 2027.65625 827.195312 1989.296875 792.703125 1943.945312 782.664062 C 1849.414062 761.804688 1775.46875 853.015625 1682.695312 825.515625 C 1645.625 814.539062 1593.945312 783.601562 1556.875 772.585938 C 1508.242188 758.132812 1451.367188 778.757812 1423.28125 820.984375" fill="none" stroke="#262a30" stroke-linecap="round" stroke-linejoin="round" stroke-miterlimit="10" stroke-width="40" transform="matrix(.1 0 0 -.1 0 425.2)"/></g></svg>